<svg xmlns="http://www.w3.org/2000/svg" width="24" height="20" viewBox="0 0 24 20">
  <metadata><?xpacket begin="﻿" id="W5M0MpCehiHzreSzNTczkc9d"?>
<x:xmpmeta xmlns:x="adobe:ns:meta/" x:xmptk="Adobe XMP Core 5.6-c138 79.159824, 2016/09/14-01:09:01        ">
   <rdf:RDF xmlns:rdf="http://www.w3.org/1999/02/22-rdf-syntax-ns#">
      <rdf:Description rdf:about=""/>
   </rdf:RDF>
</x:xmpmeta>
                                                                                                    
                                                                                                    
                                                                                                    
                                                                                                    
                                                                                                    
                                                                                                    
                                                                                                    
                                                                                                    
                                                                                                    
                                                                                                    
                                                                                                    
                                                                                                    
                                                                                                    
                                                                                                    
                                                                                                    
                                                                                                    
                                                                                                    
                                                                                                    
                                                                                                    
                                                                                                    
                           
<?xpacket end="w"?></metadata>
<defs>
    <style>
      .cls-1 {
        fill: #999;
        fill-rule: evenodd;
      }
    </style>
  </defs>
  <path id="圆角矩形_2661_拷贝" data-name="圆角矩形 2661 拷贝" class="cls-1" d="M577,853h-8a1.977,1.977,0,0,1-1-.277V854a1,1,0,0,1-2,0v-1.277a1.977,1.977,0,0,1-1,.277h-8a2,2,0,0,1-2-2V837a2,2,0,0,1,2-2h8a2,2,0,0,0,4,0h8a2,2,0,0,1,2,2v14A2,2,0,0,1,577,853Zm-11-15a1,1,0,0,0-1-1h-7a1,1,0,0,0-1,1v12a1,1,0,0,0,1,1h7a1,1,0,0,0,1-1V838Zm11,0a1,1,0,0,0-1-1h-7a1,1,0,0,0-1,1v12a1,1,0,0,0,1,1h7a1,1,0,0,0,1-1V838Z" transform="translate(-555 -835)"/>
</svg>
