<svg xmlns="http://www.w3.org/2000/svg" width="24" height="24" viewBox="0 0 24 24">
  <metadata><?xpacket begin="﻿" id="W5M0MpCehiHzreSzNTczkc9d"?>
<x:xmpmeta xmlns:x="adobe:ns:meta/" x:xmptk="Adobe XMP Core 5.6-c138 79.159824, 2016/09/14-01:09:01        ">
   <rdf:RDF xmlns:rdf="http://www.w3.org/1999/02/22-rdf-syntax-ns#">
      <rdf:Description rdf:about=""/>
   </rdf:RDF>
</x:xmpmeta>
                                                                                                    
                                                                                                    
                                                                                                    
                                                                                                    
                                                                                                    
                                                                                                    
                                                                                                    
                                                                                                    
                                                                                                    
                                                                                                    
                                                                                                    
                                                                                                    
                                                                                                    
                                                                                                    
                                                                                                    
                                                                                                    
                                                                                                    
                                                                                                    
                                                                                                    
                                                                                                    
                           
<?xpacket end="w"?></metadata>
<defs>
    <style>
      .cls-1 {
        fill: #999;
        fill-rule: evenodd;
      }
    </style>
  </defs>
  <path id="下载" class="cls-1" d="M628,775a12,12,0,1,1,12-12A12,12,0,0,1,628,775Zm0-22a10,10,0,1,0,10,10A10,10,0,0,0,628,753Zm0.705,14.475a0.992,0.992,0,0,1-.742.286,1.077,1.077,0,0,1-.8-0.312l-3.835-3.835a1.085,1.085,0,1,1,1.534-1.534L627,764.213V759a1,1,0,0,1,2,0v5.351l1.826-1.826a1,1,0,0,1,1.414,1.414Z" transform="translate(-616 -751)"/>
</svg>
