<svg xmlns="http://www.w3.org/2000/svg" width="36" height="36" viewBox="0 0 36 36">
  <metadata><?xpacket begin="﻿" id="W5M0MpCehiHzreSzNTczkc9d"?>
<x:xmpmeta xmlns:x="adobe:ns:meta/" x:xmptk="Adobe XMP Core 5.6-c138 79.159824, 2016/09/14-01:09:01        ">
   <rdf:RDF xmlns:rdf="http://www.w3.org/1999/02/22-rdf-syntax-ns#">
      <rdf:Description rdf:about=""/>
   </rdf:RDF>
</x:xmpmeta>
                                                                                                    
                                                                                                    
                                                                                                    
                                                                                                    
                                                                                                    
                                                                                                    
                                                                                                    
                                                                                                    
                                                                                                    
                                                                                                    
                                                                                                    
                                                                                                    
                                                                                                    
                                                                                                    
                                                                                                    
                                                                                                    
                                                                                                    
                                                                                                    
                                                                                                    
                                                                                                    
                           
<?xpacket end="w"?></metadata>
<defs>
    <style>
      .cls-1 {
        fill: #666;
        fill-rule: evenodd;
      }
    </style>
  </defs>
  <path id="Document" class="cls-1" d="M481.818,1274.8l8.485-8.48a1,1,0,0,1,1.414,1.41l-8.485,8.49A1,1,0,1,1,481.818,1274.8Zm-3.536-3.53a1,1,0,0,1,1.415,0l3.535,3.53a1,1,0,0,1-1.414,1.42l-3.536-3.54A1,1,0,0,1,478.282,1271.27ZM489,1252H473a1.848,1.848,0,0,0-2,2v32a1.848,1.848,0,0,0,2,2l22.75-.01a2.246,2.246,0,0,0,2.25-2.25V1261Zm7,34H473v-32h16l7,7v25Z" transform="translate(-466.5 -1252)"/>
</svg>
