<svg xmlns="http://www.w3.org/2000/svg" width="36" height="36" viewBox="0 0 36 36">
  <metadata><?xpacket begin="﻿" id="W5M0MpCehiHzreSzNTczkc9d"?>
<x:xmpmeta xmlns:x="adobe:ns:meta/" x:xmptk="Adobe XMP Core 5.6-c138 79.159824, 2016/09/14-01:09:01        ">
   <rdf:RDF xmlns:rdf="http://www.w3.org/1999/02/22-rdf-syntax-ns#">
      <rdf:Description rdf:about=""/>
   </rdf:RDF>
</x:xmpmeta>
                                                                                                    
                                                                                                    
                                                                                                    
                                                                                                    
                                                                                                    
                                                                                                    
                                                                                                    
                                                                                                    
                                                                                                    
                                                                                                    
                                                                                                    
                                                                                                    
                                                                                                    
                                                                                                    
                                                                                                    
                                                                                                    
                                                                                                    
                                                                                                    
                                                                                                    
                                                                                                    
                           
<?xpacket end="w"?></metadata>
<defs>
    <style>
      .cls-1 {
        fill: #f04a4c;
        fill-rule: evenodd;
      }
    </style>
  </defs>
  <path id="Document_拷贝_4" data-name="Document 拷贝 4" class="cls-1" d="M489,1252H473a1.848,1.848,0,0,0-2,2v32a1.848,1.848,0,0,0,2,2l22.75-.01a2.246,2.246,0,0,0,2.25-2.25V1261Zm-11.071,18.41a1,1,0,0,1,1.414,0l4.243,4.25a1,1,0,1,1-1.414,1.41l-4.243-4.24A1.006,1.006,0,0,1,477.929,1270.41Zm4.243,4.25,8.485-8.49a1,1,0,0,1,1.414,1.42l-8.485,8.48A1,1,0,0,1,482.172,1274.66Z" transform="translate(-466.5 -1252)"/>
</svg>
