<svg xmlns="http://www.w3.org/2000/svg" width="32" height="38" viewBox="0 0 32 38">
  <metadata><?xpacket begin="﻿" id="W5M0MpCehiHzreSzNTczkc9d"?>
<x:xmpmeta xmlns:x="adobe:ns:meta/" x:xmptk="Adobe XMP Core 5.6-c138 79.159824, 2016/09/14-01:09:01        ">
   <rdf:RDF xmlns:rdf="http://www.w3.org/1999/02/22-rdf-syntax-ns#">
      <rdf:Description rdf:about=""/>
   </rdf:RDF>
</x:xmpmeta>
                                                                                                    
                                                                                                    
                                                                                                    
                                                                                                    
                                                                                                    
                                                                                                    
                                                                                                    
                                                                                                    
                                                                                                    
                                                                                                    
                                                                                                    
                                                                                                    
                                                                                                    
                                                                                                    
                                                                                                    
                                                                                                    
                                                                                                    
                                                                                                    
                                                                                                    
                                                                                                    
                           
<?xpacket end="w"?></metadata>
<defs>
    <style>
      .cls-1 {
        fill: #f04a4c;
        fill-rule: evenodd;
      }
    </style>
  </defs>
  <path id="Play_Icon_拷贝_3" data-name="Play / Icon 拷贝 3" class="cls-1" d="M680.375,377.013a1.713,1.713,0,0,1-.876,1.48v0.029l-27.929,16.92-0.028-.016a1.648,1.648,0,0,1-.828.246,1.719,1.719,0,0,1-1.706-1.688l-0.009,0V360.046l0,0a1.72,1.72,0,0,1,1.711-1.716,1.656,1.656,0,0,1,.817.237l0.025-.015L679.5,375.493v0.04A1.713,1.713,0,0,1,680.375,377.013ZM680,358a1,1,0,0,1,1,1v36a1,1,0,0,1-2,0V359A1,1,0,0,1,680,358Z" transform="translate(-649 -358)"/>
</svg>
