<svg xmlns="http://www.w3.org/2000/svg" width="32" height="38" viewBox="0 0 32 38">
  <metadata><?xpacket begin="﻿" id="W5M0MpCehiHzreSzNTczkc9d"?>
<x:xmpmeta xmlns:x="adobe:ns:meta/" x:xmptk="Adobe XMP Core 5.6-c138 79.159824, 2016/09/14-01:09:01        ">
   <rdf:RDF xmlns:rdf="http://www.w3.org/1999/02/22-rdf-syntax-ns#">
      <rdf:Description rdf:about=""/>
   </rdf:RDF>
</x:xmpmeta>
                                                                                                    
                                                                                                    
                                                                                                    
                                                                                                    
                                                                                                    
                                                                                                    
                                                                                                    
                                                                                                    
                                                                                                    
                                                                                                    
                                                                                                    
                                                                                                    
                                                                                                    
                                                                                                    
                                                                                                    
                                                                                                    
                                                                                                    
                                                                                                    
                                                                                                    
                                                                                                    
                           
<?xpacket end="w"?></metadata>
<defs>
    <style>
      .cls-1 {
        fill: #f04a4c;
        fill-rule: evenodd;
      }
    </style>
  </defs>
  <path id="Play_Icon_拷贝_4" data-name="Play / Icon 拷贝 4" class="cls-1" d="M320.624,377.013a1.713,1.713,0,0,0,.876,1.48v0.029l27.93,16.92,0.028-.016a1.647,1.647,0,0,0,.827.246,1.719,1.719,0,0,0,1.706-1.688l0.01,0V360.046l0,0a1.72,1.72,0,0,0-1.711-1.716,1.655,1.655,0,0,0-.816.237l-0.026-.015L321.5,375.493v0.04A1.713,1.713,0,0,0,320.624,377.013ZM321,358a1,1,0,0,1,1,1v36a1,1,0,0,1-2,0V359A1,1,0,0,1,321,358Z" transform="translate(-320 -358)"/>
</svg>
