<svg xmlns="http://www.w3.org/2000/svg" width="24" height="24" viewBox="0 0 24 24">
  <metadata><?xpacket begin="﻿" id="W5M0MpCehiHzreSzNTczkc9d"?>
<x:xmpmeta xmlns:x="adobe:ns:meta/" x:xmptk="Adobe XMP Core 5.6-c138 79.159824, 2016/09/14-01:09:01        ">
   <rdf:RDF xmlns:rdf="http://www.w3.org/1999/02/22-rdf-syntax-ns#">
      <rdf:Description rdf:about=""/>
   </rdf:RDF>
</x:xmpmeta>
                                                                                                    
                                                                                                    
                                                                                                    
                                                                                                    
                                                                                                    
                                                                                                    
                                                                                                    
                                                                                                    
                                                                                                    
                                                                                                    
                                                                                                    
                                                                                                    
                                                                                                    
                                                                                                    
                                                                                                    
                                                                                                    
                                                                                                    
                                                                                                    
                                                                                                    
                                                                                                    
                           
<?xpacket end="w"?></metadata>
<defs>
    <style>
      .cls-1 {
        fill: #999;
        fill-rule: evenodd;
      }
    </style>
  </defs>
  <path id="圆角矩形_3545" data-name="圆角矩形 3545" class="cls-1" d="M770.5,752h3a10.5,10.5,0,1,1,0,21h-3A10.5,10.5,0,1,1,770.5,752Zm-0.158,2h3.318a8.372,8.372,0,0,1,8.372,8.372V762.6a8.373,8.373,0,0,1-8.372,8.373h-3.318a8.373,8.373,0,0,1-8.372-8.373v-0.224A8.372,8.372,0,0,1,770.341,754Zm-3.841,7a1.5,1.5,0,1,1-1.5,1.5A1.5,1.5,0,0,1,766.5,761Zm12,0a1.5,1.5,0,1,1-1.5,1.5A1.5,1.5,0,0,1,778.5,761Zm-6,0a1.5,1.5,0,1,1-1.5,1.5A1.5,1.5,0,0,1,772.5,761Z" transform="translate(-760 -750.5)"/>
</svg>
